<svg width="435" height="304" viewBox="0 0 435 304" fill="none" xmlns="http://www.w3.org/2000/svg">
<path d="M426.358 303.23H28.2901C24.0541 303.23 20.6191 299.796 20.6191 295.559C20.6191 291.323 24.0531 287.888 28.2901 287.888H426.358C430.594 287.888 434.029 291.322 434.029 295.559C434.028 299.796 430.594 303.23 426.358 303.23Z" fill="#FF7129"/>
<path d="M388.061 211.215H137.851C125.641 211.215 115.742 201.317 115.742 189.106V22.109C115.742 9.899 125.64 0 137.851 0H388.061C400.271 0 410.17 9.898 410.17 22.109V189.106C410.17 201.316 400.271 211.215 388.061 211.215Z" fill="#F5F5F5"/>
<path opacity="0.5" d="M410.169 32.102H115.74V22.109C115.74 9.899 125.638 0 137.849 0H388.059C400.269 0 410.168 9.898 410.168 22.109V32.102H410.169Z" fill="#D6D6D6"/>
<path d="M360.904 20.8981H186.728C184.051 20.8981 181.881 18.7281 181.881 16.0511C181.881 13.3741 184.051 11.2041 186.728 11.2041H360.905C363.582 11.2041 365.752 13.3741 365.752 16.0511C365.752 18.7281 363.581 20.8981 360.904 20.8981Z" fill="#F5F5F5"/>
<path d="M136.885 16.0511C136.885 18.2381 135.112 20.0111 132.925 20.0111C130.738 20.0111 128.965 18.2381 128.965 16.0511C128.965 13.8641 130.738 12.0911 132.925 12.0911C135.112 12.0911 136.885 13.8641 136.885 16.0511Z" fill="#F5F5F5"/>
<path d="M151.668 16.0511C151.668 18.2381 149.895 20.0111 147.708 20.0111C145.521 20.0111 143.748 18.2381 143.748 16.0511C143.748 13.8641 145.521 12.0911 147.708 12.0911C149.895 12.0911 151.668 13.8641 151.668 16.0511Z" fill="#F5F5F5"/>
<path d="M166.209 16.0511C166.209 18.2381 164.436 20.0111 162.249 20.0111C160.062 20.0111 158.289 18.2381 158.289 16.0511C158.289 13.8641 160.062 12.0911 162.249 12.0911C164.436 12.0911 166.209 13.8641 166.209 16.0511Z" fill="#F5F5F5"/>
<path d="M283.971 78.3389L259.077 103.232L234.184 78.3389L219.162 93.3609L244.056 118.254L219.162 143.147L234.184 158.169L259.077 133.275L283.971 158.169L298.993 143.147L274.099 118.254L298.993 93.3599L283.971 78.3389Z" fill="#D6D6D6"/>
<path d="M362.425 287.889H260.463L268.518 172.544C268.998 165.663 274.966 160.085 281.847 160.085H358.892C365.773 160.085 370.961 165.663 370.481 172.544L362.425 287.889Z" fill="#A18635"/>
<path d="M347.425 287.889H245.463L253.518 172.544C253.998 165.663 259.966 160.085 266.847 160.085H343.892C350.773 160.085 355.961 165.663 355.481 172.544L347.425 287.889Z" fill="#E3C158"/>
<path d="M306.106 160.086C309.911 163.631 311.409 166.991 312.038 169.553C313.321 174.786 312.225 181.791 312.222 181.855C314.19 184.19 316.697 187.336 319.388 191.209C319.388 191.209 325.405 199.87 329.649 208.858C334.937 220.057 343.509 238.21 339.509 257.523C336.444 272.321 325.98 287.889 325.98 287.889H267.967L275.075 160.071L306.106 160.086Z" fill="#FFDE00"/>
<path d="M197.556 87.732C197.841 86.818 202.508 72.472 213.47 67.587C218.716 65.25 224.629 65.026 224.629 65.026C225.24 65.003 227.764 64.927 231.164 65.485C231.164 65.485 239.01 66.435 244.731 70.491C254.798 77.63 260.632 95.504 259.559 111.049C259.177 116.576 257.866 122.253 261.46 126.5C263.399 128.791 266.615 129.552 271.177 130.95C280.655 133.854 296.247 137.523 302.514 150.211C308.782 162.899 309.546 180.784 305.418 185.676C301.291 190.568 202.789 190.109 199.301 186.287C195.813 182.465 189.393 163.969 188.628 149.293C187.948 136.248 197.087 130.845 199.301 114.765C200.843 103.567 199.186 94.024 197.556 87.732Z" fill="#262626"/>
<path d="M253.75 86.313C255.639 89.997 258.348 95.938 260.323 103.626C263.443 115.773 260.979 117.711 263.839 122.389C270.189 132.778 283.975 126.434 297.164 138.287C304.561 144.935 307.123 153.131 307.986 156.02C311.737 168.561 308.238 179.318 306.759 183.202" stroke="#262626" stroke-miterlimit="10" stroke-linecap="round" stroke-linejoin="round"/>
<path d="M201.165 110.619C199.319 114.781 196.343 121.37 192.452 129.422C185.345 144.128 183.362 146.8 183.899 152.044C184.83 161.128 192.578 170.642 192.578 170.642" stroke="#262626" stroke-miterlimit="10" stroke-linecap="round" stroke-linejoin="round"/>
<path d="M216.231 142.514C216.231 142.514 241.51 142.514 241.621 142.514C261.696 142.514 283.687 156.882 296.89 170.919C307.452 182.148 315.181 195.798 321.045 210.055C328.683 228.625 336.162 254.355 326.82 273.573C325.425 276.442 322.263 282.735 315.557 286.131C308.179 289.867 300.471 287.636 298.081 287.636C282.489 287.636 144.298 287.678 144.298 287.678C140.605 251.781 147.72 224.735 152.859 209.98C157.633 196.271 163.217 180.793 177.79 166.095C191.747 152.02 207.135 145.533 216.231 142.514Z" fill="#F2CA50"/>
<path d="M215.076 142.514L197.343 288.299L185.879 288.211L203.637 147.062L215.076 142.514Z" fill="#D5B040"/>
<path d="M228.876 153.243C235.988 153.27 241.775 147.527 241.802 140.415L241.907 112.705L216.154 112.607L216.049 140.318C216.022 147.429 221.765 153.216 228.876 153.243Z" fill="#F7A99C"/>
<path d="M216.078 132.561L232.851 123.944C232.681 125.396 231.728 132.199 225.745 136.897C221.925 139.897 217.911 140.582 216.057 140.776L216.078 132.561Z" fill="#FF7769"/>
<path d="M242.533 104.12C242.614 103.701 243.717 103.069 244.056 102.852C244.629 102.486 245.248 102.194 245.895 101.985C247.152 101.581 248.532 101.487 249.823 101.783C252.391 102.372 254.667 104.529 255.094 107.171C255.342 108.706 254.988 110.293 254.33 111.702C253.341 113.82 251.664 115.6 249.638 116.767C247.959 117.734 246.049 118.281 244.118 118.396C243.731 118.419 239.774 118.327 239.803 118.176C240.714 113.491 241.624 108.806 242.533 104.12Z" fill="#F7A99C"/>
<path d="M246.063 104.388C245.758 106.456 243.941 117.361 234.112 125.066C232.301 126.485 220.263 135.921 209.25 131.316C195.097 125.399 196.641 102.153 196.741 100.894C197.078 96.638 198.072 84.103 208.453 77.415C216.925 71.957 226.106 73.964 227.408 74.27C228.78 74.593 237.52 76.798 242.868 85.367C247.72 93.143 246.561 101.005 246.063 104.388Z" fill="#F7A99C"/>
<path d="M204.772 100.91C204.544 102.725 203.145 104.043 201.646 103.855C200.147 103.667 199.118 102.043 199.346 100.228C199.574 98.4127 200.973 97.0937 202.472 97.2827C203.97 97.4717 205 99.0947 204.772 100.91Z" fill="#262626"/>
<path d="M221.127 102.964C220.899 104.779 219.5 106.097 218.002 105.909C216.504 105.721 215.474 104.097 215.702 102.282C215.93 100.467 217.329 99.1487 218.827 99.3367C220.325 99.5247 221.355 101.149 221.127 102.964Z" fill="#262626"/>
<path d="M209.709 103.626L207.202 107.012C206.741 107.634 206.914 108.518 207.576 108.921L209.878 110.322" stroke="#262626" stroke-width="1.3478" stroke-miterlimit="10" stroke-linecap="round" stroke-linejoin="round"/>
<path d="M226.61 111.512C226.354 113.548 224.496 114.992 222.46 114.736C220.424 114.48 218.98 112.622 219.236 110.586C219.492 108.55 221.35 107.106 223.386 107.362C225.423 107.618 226.866 109.476 226.61 111.512Z" fill="#FF7769"/>
<path d="M244.26 113.432C244.248 113.024 244.213 110.259 246.432 108.264C248.17 106.701 250.192 106.599 250.744 106.589" stroke="#262626" stroke-width="1.3478" stroke-miterlimit="10" stroke-linecap="round" stroke-linejoin="round"/>
<path d="M246.217 108.81C246.34 108.791 247.828 108.584 248.866 109.709C249.72 110.633 249.642 111.777 249.626 111.967" stroke="#262626" stroke-width="1.3478" stroke-miterlimit="10" stroke-linecap="round" stroke-linejoin="round"/>
<path d="M198.667 105.635C197.963 105.547 197.285 105.673 196.682 105.945C196.754 107.94 196.946 110.36 197.384 112.927C197.503 112.954 197.617 112.993 197.741 113.009C199.777 113.265 201.636 111.821 201.891 109.785C202.147 107.749 200.704 105.891 198.667 105.635Z" fill="#FF7769"/>
<path d="M206.303 117.111C206.732 116.59 208.066 115.108 210.373 114.531C212.987 113.878 215.085 114.828 215.647 115.104" stroke="#262626" stroke-width="1.3478" stroke-miterlimit="10" stroke-linecap="round" stroke-linejoin="round"/>
<path d="M195.584 94.4908H211.788C211.788 94.4908 212.399 89.2168 214.005 86.6178C215.611 84.0188 218.056 82.4138 218.056 82.4138C217.688 83.3448 217.269 84.5778 216.948 86.0638C216.719 87.1238 216.414 88.5298 216.432 90.3628C216.432 90.3628 216.439 91.0568 216.833 94.4898H230.897C230.574 93.6338 229.881 91.4538 230.477 88.7578C230.997 86.4048 232.232 84.8548 232.851 84.1718C232.375 88.3918 232.909 91.7538 233.419 93.8788C234.308 97.5838 235.79 100.309 236.897 102.344C237.96 104.299 239.003 105.86 239.804 106.974C239.804 106.974 241.713 104.563 243.26 103.626C244.808 102.689 246.389 101.845 246.389 101.845C246.744 100.002 247.063 97.2018 246.566 93.8798C245.544 87.0418 241.751 82.5738 240.165 80.9058C234.786 75.2478 228.35 73.9768 226.006 73.5488C221.005 72.6358 216.995 73.3978 215.611 73.7018C214.529 73.9398 212.018 74.5648 209.095 76.0908C207.067 77.1488 201.322 80.2308 197.917 86.9828C197.11 88.5798 196.056 91.1228 195.584 94.4908Z" fill="#262626"/>
<path d="M212.802 143.72C212.802 143.72 197.114 207.994 195.28 229.548C193.446 251.102 192.758 288.298 192.758 288.298L144.299 287.68C143.312 280.72 142.429 271.253 142.77 260.045C143.569 233.847 150.566 214.363 153.318 207.306C159.796 190.691 167.618 170.627 187.942 155.943C197.34 149.154 206.482 145.63 212.802 143.72Z" fill="#414141"/>
<path d="M180.834 184.3L160.654 287.889H172.732L180.834 184.3Z" fill="black"/>
<path d="M184.35 165.803C183.242 172.034 181.51 182.449 179.961 195.463C178.064 211.402 178.349 215.226 175.229 255.963C174.294 268.176 172.732 287.889 172.732 287.889" stroke="#262626" stroke-miterlimit="10" stroke-linecap="round" stroke-linejoin="round"/>
<path d="M228.356 264.746C230.188 266.645 231.244 268.47 231.853 269.733C233.766 273.704 233.832 277.478 233.879 280.147C233.907 281.737 233.816 283.057 233.726 283.969C233.726 283.969 210.032 276.326 206.516 276.631C203.418 276.9 187.98 280.848 184.351 281.784C183.847 281.914 183.322 281.9 182.824 281.747L177.624 280.147L172.721 280.356C170.961 280.431 169.755 278.631 170.472 277.022C170.65 276.622 170.889 276.187 171.204 275.714C173.344 272.504 175.484 270.211 175.484 270.211L167.627 271.628C166.865 271.631 165.617 271.525 165.189 270.761C164.551 269.621 166.119 267.698 167.191 266.409C169.678 263.42 172.396 261.812 173.267 261.307C176.337 259.527 179.2 257.867 183.891 256.454C187.588 255.34 197.768 252.107 210.299 255.288C218.511 257.372 224.541 261.491 228.356 264.746Z" fill="#F7A99C"/>
<path d="M227.103 263.714C227.207 264.516 227.757 269.398 224.248 273.574C220.337 278.228 214.655 278.113 213.965 278.087L233.726 283.969C233.726 283.969 233.872 276.901 233.523 275.163C233.174 273.425 231.957 269.411 230.703 267.694C229.449 265.977 227.103 263.714 227.103 263.714Z" fill="#FF7769"/>
<path d="M177.623 280.147C179.897 277.659 183.819 273.979 189.636 271.075C195.118 268.338 200.114 267.373 203.381 267" stroke="#262626" stroke-miterlimit="10" stroke-linecap="round" stroke-linejoin="round"/>
<path d="M172.721 280.356C176.306 274.243 180.274 271.063 183.203 269.294C183.203 269.294 185.367 267.987 196.732 263.714" stroke="#262626" stroke-miterlimit="10" stroke-linecap="round" stroke-linejoin="round"/>
<path d="M175.127 270.275C178.01 266.02 181.02 264.044 183.204 263.026C187.088 261.214 192.987 260.274 192.987 260.274" stroke="#262626" stroke-miterlimit="10" stroke-linecap="round" stroke-linejoin="round"/>
<path d="M244.258 142.514C244.258 142.514 239.304 179.331 238.616 201.344C237.928 223.357 237.224 260.962 237.224 260.962L228.355 264.746C228.355 264.746 232.588 277.243 232.85 281.141C233.113 285.039 232.85 288.299 232.85 288.299C245.821 288.046 256.362 288.367 263.609 288.708C269.774 288.999 278.954 289.055 297.316 289.167C303.845 289.207 309.362 289.177 315.556 286.133C316.289 285.772 322.51 282.633 327.125 276.326C330.112 272.244 334.8 263.59 332.169 242.16C331.062 233.143 327.22 204.934 305.341 178.185C292.841 162.903 280.505 155.494 277.074 153.521C266.667 147.539 257.512 145.102 255.611 144.61C251.082 143.441 247.165 142.843 244.258 142.514Z" fill="#414141"/>
<path d="M274.033 212.886C274.269 218.647 273.875 228.986 268.578 240.173C265.744 246.158 262.303 250.704 259.406 253.924C265.725 252.296 272.043 250.667 278.362 249.039L274.033 212.886Z" fill="black"/>
<path d="M299.916 244.224C299.916 244.224 244.57 257.829 237.224 260.963C229.878 264.097 228.355 264.747 228.355 264.747" stroke="#262626" stroke-miterlimit="10" stroke-linecap="round" stroke-linejoin="round"/>
<path d="M304.197 186.899C304.197 186.899 331.407 238.109 323.305 259.052C322.066 262.254 319.329 269.181 312.485 274.213C306.066 278.931 299.149 279.678 287.229 279.995C276.805 280.272 262.941 280.211 246.414 278.925" stroke="white" stroke-miterlimit="10" stroke-linecap="round" stroke-linejoin="round"/>
<path d="M296.238 168.263C285.012 172.708 279.782 178.7 277.139 182.772C277.139 182.772 269.029 195.264 279.02 249.453" stroke="#262626" stroke-miterlimit="10" stroke-linecap="round" stroke-linejoin="round"/>
<path d="M230.882 289.173H156.605V280.275H234.72V285.335C234.72 287.455 233.002 289.173 230.882 289.173Z" fill="#7E6926"/>
<path d="M164.735 289.173H62.2386C59.8956 289.173 57.7646 287.274 57.4776 284.931L48.1706 208.804C47.8846 206.461 49.5516 204.562 51.8936 204.562H154.391C156.734 204.562 158.865 206.461 159.152 208.804L168.458 284.931C168.745 287.274 167.078 289.173 164.735 289.173Z" fill="#7E6926"/>
<path d="M158.735 289.173H56.2386C53.8956 289.173 51.7646 287.274 51.4776 284.931L42.1706 208.804C41.8846 206.461 43.5516 204.562 45.8936 204.562H148.391C150.734 204.562 152.865 206.461 153.152 208.804L162.458 284.931C162.745 287.274 161.078 289.173 158.735 289.173Z" fill="#F2CA50"/>
<path d="M42.1697 208.804C42.9117 208.601 45.6277 232.335 61.1387 253.701C63.8217 257.396 68.6617 263.963 76.8837 270.363C76.8837 270.363 85.2447 276.871 116.4 289.172C114.721 289.172 113.041 289.172 111.362 289.172C107.231 289.172 103.1 289.172 98.9677 289.172C93.7387 289.172 88.5097 289.172 83.2807 289.172C78.3087 289.172 73.3367 289.172 68.3637 289.172C65.6957 289.172 63.0287 289.175 60.3607 289.174C58.2357 289.173 55.5917 289.648 53.6947 288.461C52.1247 287.479 51.4387 285.537 51.2137 283.699C51.0547 282.398 51.0727 281.083 50.9267 279.781C50.7817 278.493 50.5327 277.215 50.3757 275.925C50.0317 273.109 49.6867 270.292 49.3427 267.476C48.7797 262.869 48.2167 258.263 47.6527 253.656C47.0457 248.688 46.4377 243.72 45.8307 238.753C45.2667 234.14 44.7027 229.527 44.1387 224.915C43.7057 221.374 43.3367 217.824 42.8397 214.29C42.2707 210.236 41.9887 208.853 42.1697 208.804Z" fill="#FFDE00"/>
<path d="M45.8945 204.562H148.392C150.735 204.562 152.866 206.461 153.153 208.804L162.459 284.931" stroke="#262626" stroke-miterlimit="10" stroke-linecap="round" stroke-linejoin="round"/>
<path d="M105.281 244.747C105.281 248.008 102.638 250.652 99.3766 250.652C96.1156 250.652 93.4727 248.008 93.4727 244.747C93.4727 241.486 96.1156 238.843 99.3766 238.843C102.637 238.842 105.281 241.486 105.281 244.747Z" fill="black"/>
<path d="M324.07 167.026H335.451C340.447 167.026 344.388 171.274 344.014 176.256L340.54 222.516" stroke="white" stroke-miterlimit="10" stroke-linecap="round" stroke-linejoin="round"/>
<path d="M129.322 220.599H10.959C5.183 220.599 0.5 215.917 0.5 210.14V131.142C0.5 125.366 5.183 120.683 10.959 120.683H129.322C135.098 120.683 139.781 125.366 139.781 131.142V210.14C139.781 215.917 135.098 220.599 129.322 220.599Z" fill="#F5F5F5"/>
<path opacity="0.5" d="M139.781 135.869H0.5V131.142C0.5 125.366 5.183 120.683 10.959 120.683H129.322C135.098 120.683 139.781 125.366 139.781 131.142V135.869Z" fill="#D6D6D6"/>
<path d="M116.475 130.569H34.0801C32.8141 130.569 31.7871 129.542 31.7871 128.276C31.7871 127.01 32.8141 125.983 34.0801 125.983H116.475C117.741 125.983 118.768 127.01 118.768 128.276C118.768 129.543 117.742 130.569 116.475 130.569Z" fill="#F5F5F5"/>
<path d="M10.5029 128.276C10.5029 129.311 9.66386 130.15 8.62986 130.15C7.59486 130.15 6.75586 129.311 6.75586 128.276C6.75586 127.241 7.59486 126.403 8.62986 126.403C9.66386 126.403 10.5029 127.242 10.5029 128.276Z" fill="#F5F5F5"/>
<path d="M17.495 128.276C17.495 129.311 16.656 130.15 15.621 130.15C14.586 130.15 13.748 129.311 13.748 128.276C13.748 127.241 14.587 126.403 15.621 126.403C16.656 126.403 17.495 127.242 17.495 128.276Z" fill="#F5F5F5"/>
<path d="M24.3759 128.276C24.3759 129.311 23.5369 130.15 22.5029 130.15C21.4679 130.15 20.6289 129.311 20.6289 128.276C20.6289 127.241 21.4679 126.403 22.5029 126.403C23.5369 126.403 24.3759 127.242 24.3759 128.276Z" fill="#F5F5F5"/>
<path d="M80.0818 157.742L68.3058 169.518L56.5298 157.742L49.4238 164.848L61.1998 176.624L49.4238 188.399L56.5298 195.506L68.3058 183.73L80.0818 195.506L87.1878 188.399L75.4118 176.624L87.1878 164.848L80.0818 157.742Z" fill="#D6D6D6"/>
<path d="M129.322 220.599H10.959C5.183 220.599 0.5 215.917 0.5 210.14V131.142C0.5 125.366 5.183 120.683 10.959 120.683H129.322C135.098 120.683 139.781 125.366 139.781 131.142V210.14C139.781 215.917 135.098 220.599 129.322 220.599Z" stroke="#262626" stroke-miterlimit="10" stroke-linecap="round" stroke-linejoin="round"/>
<path d="M178.137 66.4292L193.607 72.8472" stroke="#FF7129" stroke-miterlimit="10" stroke-linecap="round" stroke-linejoin="round"/>
<path d="M177.467 49.4961L197.047 68.0911" stroke="#FF7129" stroke-miterlimit="10" stroke-linecap="round" stroke-linejoin="round"/>
<path d="M194.479 49.2202L201.686 64.3392" stroke="#FF7129" stroke-miterlimit="10" stroke-linecap="round" stroke-linejoin="round"/>
<path d="M381.828 132.29C383.231 128.612 384.641 125.757 386.059 123.727C387.476 121.697 389.352 120.055 391.686 118.804C393.05 118.038 394.477 117.477 395.972 117.118C397.464 116.76 398.883 116.319 400.226 115.795C401.567 115.272 402.795 114.579 403.91 113.719C405.024 112.858 405.926 111.525 406.616 109.716C407.781 106.662 407.754 104.205 406.534 102.347C405.314 100.489 403.55 99.1202 401.245 98.2402C397.939 96.9792 395.313 97.0322 393.366 98.3952C391.416 99.7592 389.692 101.94 388.192 104.938L376.129 100.336C377.294 97.2822 378.85 94.6972 380.8 92.5832C382.748 90.4702 384.975 88.8912 387.481 87.8472C389.985 86.8032 392.71 86.3072 395.655 86.3592C398.598 86.4102 401.629 87.0312 404.747 88.2202C411.48 90.7882 416.271 94.1882 419.122 98.4172C421.971 102.647 422.22 107.847 419.866 114.02C419.104 116.016 418.236 117.683 417.261 119.025C416.284 120.366 415.159 121.49 413.886 122.397C412.611 123.303 411.179 124.061 409.591 124.669C408.001 125.278 406.245 125.857 404.321 126.408C402.544 126.945 401.063 127.505 399.877 128.087C398.69 128.67 397.687 129.378 396.872 130.208C396.055 131.039 395.375 131.977 394.835 133.02C394.293 134.064 393.762 135.272 393.239 136.643L381.828 132.29ZM374.57 150.197L379.243 137.946L391.868 142.762L387.195 155.013L374.57 150.197Z" fill="#FFDE00"/>
<path d="M56.3012 68.9562C55.4072 66.6692 54.8612 64.7602 54.6642 63.2282C54.4672 61.6962 54.6452 60.1522 55.1982 58.5952C55.5072 57.6702 55.9302 56.8122 56.4702 56.0192C57.0092 55.2282 57.4792 54.4292 57.8802 53.6242C58.2802 52.8202 58.5572 51.9852 58.7112 51.1212C58.8642 50.2572 58.7222 49.2632 58.2822 48.1382C57.5392 46.2392 56.4972 45.1162 55.1542 44.7692C53.8112 44.4222 52.4232 44.5302 50.9902 45.0912C48.9352 45.8952 47.7442 47.0202 47.4162 48.4662C47.0882 49.9132 47.2062 51.6432 47.7702 53.6572L40.2702 56.5902C39.5272 54.6912 39.1622 52.8452 39.1762 51.0522C39.1902 49.2602 39.5562 47.5972 40.2752 46.0642C40.9942 44.5322 42.0442 43.1602 43.4252 41.9492C44.8052 40.7392 46.4652 39.7542 48.4042 38.9962C52.5902 37.3592 56.2282 36.9202 59.3182 37.6772C62.4072 38.4362 64.7032 40.7332 66.2032 44.5702C66.6882 45.8112 66.9862 46.9452 67.0992 47.9742C67.2102 49.0032 67.1622 49.9942 66.9542 50.9472C66.7452 51.9002 66.4022 52.8502 65.9232 53.7972C65.4442 54.7452 64.8762 55.7482 64.2192 56.8102C63.6242 57.8032 63.1752 58.6832 62.8712 59.4492C62.5682 60.2162 62.4012 60.9632 62.3732 61.6882C62.3442 62.4152 62.4242 63.1332 62.6112 63.8402C62.7982 64.5492 63.0602 65.3301 63.3932 66.1821L56.3012 68.9562ZM60.4572 80.2692L57.4782 72.6532L65.3272 69.5832L68.3062 77.1992L60.4572 80.2692Z" fill="#F7D116"/>
<path d="M406.897 287.889H374.994L372.865 253.924H409.025L406.897 287.889Z" fill="#FEC02D"/>
<path d="M404.697 253.924H377.193V224.967C377.193 217.372 383.35 211.215 390.945 211.215C398.54 211.215 404.697 217.372 404.697 224.967V253.924Z" fill="#94E261"/>
<mask id="mask0_18674_2068" style="mask-type:luminance" maskUnits="userSpaceOnUse" x="377" y="211" width="28" height="43">
<path d="M404.697 253.924H377.193V224.967C377.193 217.372 383.35 211.215 390.945 211.215C398.54 211.215 404.697 217.372 404.697 224.967V253.924V253.924Z" fill="white"/>
</mask>
<g mask="url(#mask0_18674_2068)">
<path d="M382.217 215.407C382.217 219.257 379.906 219.257 379.906 223.108C379.906 226.96 382.217 226.96 382.217 230.811C382.217 234.661 379.906 234.661 379.906 238.512C379.906 242.365 382.217 242.365 382.217 246.218C382.217 250.071 379.906 250.071 379.906 253.924" stroke="#262626" stroke-width="0.5" stroke-miterlimit="10" stroke-linecap="round" stroke-linejoin="round"/>
<path d="M388.266 211.79C388.266 216.002 385.738 216.002 385.738 220.214C385.738 224.427 388.266 224.427 388.266 228.641C388.266 232.853 385.738 232.853 385.738 237.065C385.738 241.28 388.266 241.28 388.266 245.495C388.266 249.71 385.738 249.71 385.738 253.925" stroke="#262626" stroke-width="0.5" stroke-miterlimit="10" stroke-linecap="round" stroke-linejoin="round"/>
<path d="M397.165 212.14C397.165 216.317 394.658 216.317 394.658 220.494C394.658 224.672 397.165 224.672 397.165 228.851C397.165 233.028 394.658 233.028 394.658 237.205C394.658 241.385 397.165 241.385 397.165 245.565C397.165 249.745 394.658 249.745 394.658 253.925" stroke="#262626" stroke-width="0.5" stroke-miterlimit="10" stroke-linecap="round" stroke-linejoin="round"/>
<path d="M403.381 217.176C403.381 220.849 401.176 220.849 401.176 224.523C401.176 228.198 403.381 228.198 403.381 231.872C403.381 235.545 401.176 235.545 401.176 239.219C401.176 242.895 403.381 242.895 403.381 246.571C403.381 250.247 401.176 250.247 401.176 253.923" stroke="#262626" stroke-width="0.5" stroke-miterlimit="10" stroke-linecap="round" stroke-linejoin="round"/>
</g>
<path d="M409.025 253.924L406.897 287.889H374.994C379.255 286.734 387.64 283.842 395.506 276.444C404.565 267.923 407.851 258.207 409.025 253.924Z" fill="#EAA418"/>
<path d="M407.197 259.321C405.902 262.54 403.716 266.971 400.032 271.549C396.352 276.123 392.495 279.204 389.629 281.158" stroke="#262626" stroke-width="0.5" stroke-miterlimit="10" stroke-linecap="round" stroke-linejoin="round"/>
</svg>
