<svg width="900" height="640" viewBox="0 0 900 640" fill="none" xmlns="http://www.w3.org/2000/svg">
  <defs>
    <radialGradient id="bgGlow" cx="0" cy="0" r="1" gradientUnits="userSpaceOnUse" gradientTransform="translate(520 420) rotate(90) scale(220 300)">
      <stop stop-color="#CDA13A" stop-opacity="0.32"/>
      <stop offset="1" stop-color="#CDA13A" stop-opacity="0"/>
    </radialGradient>
    <radialGradient id="glassFill" cx="0" cy="0" r="1" gradientUnits="userSpaceOnUse" gradientTransform="translate(0.35 0.28) scale(1 1)">
      <stop stop-color="#FFF7DF" stop-opacity="0.68"/>
      <stop offset="0.25" stop-color="#EFD48A" stop-opacity="0.18"/>
      <stop offset="0.62" stop-color="#8A6921" stop-opacity="0.12"/>
      <stop offset="1" stop-color="#0C0C0C" stop-opacity="0.92"/>
    </radialGradient>
    <linearGradient id="baseFill" x1="0" y1="0" x2="0" y2="1">
      <stop stop-color="#3A2B14"/>
      <stop offset="1" stop-color="#0B0906"/>
    </linearGradient>
    <filter id="softGlow" x="-30%" y="-30%" width="160%" height="160%">
      <feGaussianBlur stdDeviation="16" result="blur"/>
      <feMerge>
        <feMergeNode in="blur"/>
        <feMergeNode in="SourceGraphic"/>
      </feMerge>
    </filter>
  </defs>
  <rect width="900" height="640" fill="url(#bgGlow)"/>
  <g transform="translate(84 318)">
    <ellipse cx="94" cy="184" rx="106" ry="16" fill="#000000" fill-opacity="0.34"/>
    <g filter="url(#softGlow)">
      <circle cx="94" cy="84" r="82" fill="url(#glassFill)" stroke="#EFD48A" stroke-opacity="0.52" stroke-width="4"/>
      <circle cx="94" cy="84" r="68" stroke="#FFF4D0" stroke-opacity="0.36" stroke-width="3"/>
    </g>
    <path d="M36 26C22 42 16 59 16 84C16 109 22 126 36 142" stroke="#FFF4D0" stroke-opacity="0.48" stroke-width="8" stroke-linecap="round"/>
    <path d="M152 26C166 42 172 59 172 84C172 109 166 126 152 142" stroke="#FFF4D0" stroke-opacity="0.48" stroke-width="8" stroke-linecap="round"/>
    <text x="94" y="74" fill="#F2D98A" font-family="Arial, sans-serif" font-size="28" font-weight="700" text-anchor="middle">Best GOFX</text>
    <text x="94" y="108" fill="#F2D98A" font-family="Arial, sans-serif" font-size="28" font-weight="700" text-anchor="middle">Of The Year</text>
    <text x="94" y="138" fill="#FFF4D0" fill-opacity="0.8" font-family="Arial, sans-serif" font-size="16" text-anchor="middle">ICDX Broker award 2023</text>
    <rect x="22" y="174" width="144" height="22" rx="3" fill="url(#baseFill)" stroke="#FFF4D0" stroke-opacity="0.12"/>
    <rect x="2" y="192" width="184" height="18" rx="2" fill="#0B0906" stroke="#FFF4D0" stroke-opacity="0.08"/>
  </g>
  <g transform="translate(278 254)">
    <ellipse cx="128" cy="248" rx="134" ry="18" fill="#000000" fill-opacity="0.34"/>
    <g filter="url(#softGlow)">
      <circle cx="128" cy="118" r="114" fill="url(#glassFill)" stroke="#EFD48A" stroke-opacity="0.56" stroke-width="4"/>
      <circle cx="128" cy="118" r="96" stroke="#FFF4D0" stroke-opacity="0.34" stroke-width="3"/>
    </g>
    <path d="M48 42C28 62 18 87 18 118C18 149 28 174 48 194" stroke="#FFF4D0" stroke-opacity="0.48" stroke-width="10" stroke-linecap="round"/>
    <path d="M208 42C228 62 238 87 238 118C238 149 228 174 208 194" stroke="#FFF4D0" stroke-opacity="0.48" stroke-width="10" stroke-linecap="round"/>
    <text x="128" y="106" fill="#F2D98A" font-family="Arial, sans-serif" font-size="38" font-weight="700" text-anchor="middle">Best Broker</text>
    <text x="128" y="148" fill="#F2D98A" font-family="Arial, sans-serif" font-size="38" font-weight="700" text-anchor="middle">Of The Year</text>
    <text x="128" y="184" fill="#FFF4D0" fill-opacity="0.82" font-family="Arial, sans-serif" font-size="20" text-anchor="middle">ICDX Broker award 2023</text>
    <rect x="32" y="232" width="192" height="26" rx="3" fill="url(#baseFill)" stroke="#FFF4D0" stroke-opacity="0.12"/>
    <rect x="6" y="254" width="244" height="22" rx="2" fill="#0B0906" stroke="#FFF4D0" stroke-opacity="0.08"/>
  </g>
  <g transform="translate(530 194)">
    <ellipse cx="146" cy="310" rx="150" ry="20" fill="#000000" fill-opacity="0.34"/>
    <g filter="url(#softGlow)">
      <circle cx="146" cy="138" r="132" fill="url(#glassFill)" stroke="#EFD48A" stroke-opacity="0.58" stroke-width="4"/>
      <circle cx="146" cy="138" r="112" stroke="#FFF4D0" stroke-opacity="0.34" stroke-width="3"/>
    </g>
    <path d="M48 50C24 74 12 102 12 138C12 174 24 202 48 226" stroke="#FFF4D0" stroke-opacity="0.48" stroke-width="11" stroke-linecap="round"/>
    <path d="M244 50C268 74 280 102 280 138C280 174 268 202 244 226" stroke="#FFF4D0" stroke-opacity="0.48" stroke-width="11" stroke-linecap="round"/>
    <text x="146" y="114" fill="#F2D98A" font-family="Arial, sans-serif" font-size="34" font-weight="700" text-anchor="middle">Most Improved</text>
    <text x="146" y="152" fill="#F2D98A" font-family="Arial, sans-serif" font-size="34" font-weight="700" text-anchor="middle">Broker Of The Year</text>
    <text x="146" y="190" fill="#FFF4D0" fill-opacity="0.82" font-family="Arial, sans-serif" font-size="20" text-anchor="middle">ICDX Broker award 2024</text>
    <rect x="40" y="288" width="212" height="28" rx="3" fill="url(#baseFill)" stroke="#FFF4D0" stroke-opacity="0.12"/>
    <rect x="8" y="312" width="276" height="24" rx="2" fill="#0B0906" stroke="#FFF4D0" stroke-opacity="0.08"/>
  </g>
</svg>
